<svg width="64" height="64" viewBox="0 0 64 64" fill="none" xmlns="http://www.w3.org/2000/svg">
<path d="M25.1691 20.1244V22.4204L22.7024 23.8622V12.2302L25.5486 10.5796L28.3948 12.2302V22.4196L25.9282 23.8613V19.6871L25.1691 20.1244ZM25.9282 16.8418V13.2178L25.1691 13.6542V17.2782L25.9282 16.8418Z" fill="white"/>
<path d="M32.3796 18.9102L31.6205 19.3467V22.4204L29.1538 23.8622V12.2302L32 10.5796L34.8463 12.2302V16.8036L33.1387 17.7902L34.8463 18.7769V22.4204L32.3796 23.8622V18.9102ZM31.6205 13.6533V16.6702L32.3796 16.2338V13.2169L31.6205 13.6533Z" fill="white"/>
<path d="M41.2979 17.2213V22.2116L38.4517 23.8622L35.6055 22.2116V12.0222L38.0721 10.5804V13.8444L41.2979 11.9849V14.8311L38.0721 16.6907V21.2258L38.8312 20.7893V18.664L41.2979 17.2213Z" fill="white"/>
<path d="M13.0259 31.2978V26.5351L15.8721 24.8844L18.7183 26.5351V28.4133L16.2517 29.8551V27.5209L15.4925 27.9573V29.8738L18.7183 31.7333V36.5147L15.8721 38.1653L13.0259 36.5147V34.6169L15.4925 33.1751V35.528L16.2517 35.0916V33.1564L13.0259 31.2978Z" fill="white"/>
<path d="M19.4766 26.3262L21.9432 24.8844V30.3111L22.7023 29.8747V26.3262L25.169 24.8844V36.7253L22.7023 38.1671V32.7209L21.9432 33.1573V36.7244L19.4766 38.1662V26.3262Z" fill="white"/>
<path d="M28.7744 24.8844L31.6207 26.5351V36.5164L28.7744 38.1671L25.9282 36.5164V26.5351L28.7744 24.8844ZM28.3949 27.9582V35.5289L29.154 35.0924V27.5218L28.3949 27.9582Z" fill="white"/>
<path d="M38.0721 36.5164L35.2259 38.1671L32.3796 36.5164V26.3262L34.8463 24.8844V35.5298L35.6054 35.0933V26.3271L38.0721 24.8853V36.5164Z" fill="white"/>
<path d="M44.5237 36.5164L41.6775 38.1671L38.8313 36.5164V26.3262L41.298 24.8844V35.5298L42.0571 35.0933V32.968L44.5237 31.5262V36.5164Z" fill="white"/>
<path d="M45.2827 26.5351L48.1289 24.8844L50.9752 26.5351V34.8649L45.2827 38.1662V26.5351ZM48.5085 33.4418V27.5218L47.7494 27.9582V33.8782L48.5085 33.4418Z" fill="white"/>
<path d="M19.4766 40.6311L21.9432 39.1893V44.616L22.7023 44.1796V40.6311L25.169 39.1893V51.0302L22.7023 52.472V47.0258L21.9432 47.4622V51.0293L19.4766 52.4711V40.6311Z" fill="white"/>
<path d="M31.6207 50.8204L28.7744 52.4711L25.9282 50.8204V40.6311L28.3949 39.1893V49.8347L29.154 49.3982V40.6311L31.6207 39.1893V50.8204Z" fill="white"/>
<path d="M35.6054 47.5191L34.8463 47.9556V51.0293L32.3796 52.4711V40.84L35.2259 39.1893L38.0721 40.84V45.4133L36.3645 46.4L38.0721 47.3867V51.0302L35.6054 52.472V47.5191ZM34.8463 42.2631V45.28L35.6054 44.8436V41.8267L34.8463 42.2631Z" fill="white"/>
<path d="M44.5237 45.8302V50.8204L41.6775 52.4711L38.8313 50.8204V40.6311L41.298 39.1893V42.4533L44.5237 40.5938V43.44L41.298 45.2996V49.8347L42.0571 49.3982V47.2729L44.5237 45.8302Z" fill="white"/>
</svg>
