<svg width="18" height="20" viewBox="0 0 18 20" fill="none" xmlns="http://www.w3.org/2000/svg">
<path d="M15.3114 4.00883C14.1993 3.30649 13.3974 2.18226 13.1468 0.872401C13.0929 0.58946 13.0629 0.297991 13.0629 0H9.51437L9.50867 13.7798C9.44913 15.3229 8.13823 16.5616 6.53171 16.5616C6.0321 16.5616 5.562 16.4407 5.14781 16.2295C4.19829 15.7454 3.54854 14.7811 3.54854 13.6715C3.54854 12.0777 4.88688 10.7808 6.53119 10.7808C6.83821 10.7808 7.1328 10.83 7.41134 10.9143V7.40412C7.12296 7.36599 6.82992 7.34241 6.53119 7.34241C2.92985 7.34241 0 10.1814 0 13.6715C0 15.8126 1.10381 17.7074 2.78851 18.8532C3.84934 19.5751 5.14005 20 6.53171 20C10.1331 20 13.0629 17.1611 13.0629 13.6715V6.68372C14.4546 7.65144 16.16 8.22184 18 8.22184V4.7834C17.0091 4.7834 16.0859 4.49796 15.3114 4.00883Z" fill="white"/>
</svg>
