<svg width="16" height="18" viewBox="0 0 16 18" fill="none" xmlns="http://www.w3.org/2000/svg">
<g clip-path="url(#clip0_838_234)">
<path d="M13.6101 3.60795C12.6216 2.97584 11.9088 1.96403 11.686 0.785161C11.6382 0.530514 11.6115 0.268192 11.6115 0H8.45722L8.45215 12.4018C8.39923 13.7907 7.23399 14.9054 5.80597 14.9054C5.36187 14.9054 4.944 14.7966 4.57583 14.6065C3.73181 14.1708 3.15426 13.303 3.15426 12.3043C3.15426 10.8699 4.34389 9.70276 5.8055 9.70276C6.07841 9.70276 6.34026 9.74701 6.58786 9.82286V6.66371C6.33152 6.62939 6.07104 6.60817 5.8055 6.60817C2.60431 6.60817 0 9.16322 0 12.3043C0 14.2313 0.98116 15.9366 2.47867 16.9679C3.42164 17.6176 4.56893 18 5.80597 18C9.00716 18 11.6115 15.445 11.6115 12.3043V6.01535C12.8485 6.8863 14.3644 7.39965 16 7.39965V4.30506C15.1192 4.30506 14.2986 4.04816 13.6101 3.60795Z" fill="white"/>
</g>
<defs>
<clipPath id="clip0_838_234">
<rect width="16" height="18" fill="white"/>
</clipPath>
</defs>
</svg>
